PathFileType	4	(X/Y/Z)	c:/Users/goper/Files/vsCode/490R/osim_files/C11/C11_Slow_06.trc
DataRate	CameraRate	NumFrames	NumMarkers	Units                	OrigDataRate	OrigDataStartFrame	OrigNumFrames
120.00	120.00	6	36	mm	120.0	892	1188
                Frame#	Time	LPSIS			LASIS			LTH1			LTH2			LTH3			LTH4			LLFE			LMFE			LSH1			LSH2			LSH3			LSH4			LLMAL			LMMAL			LCAL			LMTP5			LTOE			LMTP1			RPSIS			RASIS			RTH1			RTH2			RTH3			RTH4			RLFE			RMFE			RSH1			RSH2			RSH3			RSH4			RLMAL			RMMAL			RCAL			RMTP1			RTOE			RMTP5		
		X1	Y1	Z1	X2	Y2	Z2	X3	Y3	Z3	X4	Y4	Z4	X5	Y5	Z5	X6	Y6	Z6	X7	Y7	Z7	X8	Y8	Z8	X9	Y9	Z9	X10	Y10	Z10	X11	Y11	Z11	X12	Y12	Z12	X13	Y13	Z13	X14	Y14	Z14	X15	Y15	Z15	X16	Y16	Z16	X17	Y17	Z17	X18	Y18	Z18	X19	Y19	Z19	X20	Y20	Z20	X21	Y21	Z21	X22	Y22	Z22	X23	Y23	Z23	X24	Y24	Z24	X25	Y25	Z25	X26	Y26	Z26	X27	Y27	Z27	X28	Y28	Z28	X29	Y29	Z29	X30	Y30	Z30	X31	Y31	Z31	X32	Y32	Z32	X33	Y33	Z33	X34	Y34	Z34	X35	Y35	Z35	X36	Y36	Z36

892	7.42500	-2873.41455	972.17584	219.40083	-3055.74951	973.93542	283.18198	-2926.50732	587.14795	329.79352	-2929.08716	540.41571	331.70056	-2984.32178	581.46344	343.99942	-2978.48975	536.35187	340.91345	0.00000	0.00000	0.00000	-2934.33936	475.44080	335.69305	-2874.70483	388.74844	363.38858	-2836.56226	362.18097	362.72064	-2835.11353	434.41229	356.17371	-2801.78564	402.57034	356.98654	-2617.63525	191.66183	326.77487	-2655.60474	180.23383	235.55598	-2554.40381	198.21251	267.27466	-2658.24780	76.45535	365.05783	-2731.03003	63.57682	306.49219	-2700.27490	59.14579	256.75488	-2873.10791	987.05817	137.39247	-3035.04907	972.06647	52.31020	-3135.51514	647.00012	13.93750	-3147.21313	605.86853	18.97468	-3079.49365	621.83228	7.05147	-3100.31958	583.72565	13.71759	-3154.21289	520.50696	30.97183	-3135.59717	496.04779	138.61815	-3110.49438	403.21857	7.97242	0.00000	0.00000	0.00000	-3172.88867	410.78934	19.53583	-3175.67212	363.95200	19.01544	0.00000	0.00000	0.00000	-3197.42603	113.18488	149.25795	-3110.56445	62.32630	112.84422	-3327.26953	61.61625	121.48481	-3325.64673	74.86955	70.09701	-3277.78003	49.87054	12.31106
893	7.43333	-2881.99561	972.62012	217.46243	-3064.26929	974.80542	281.37296	-2941.45020	585.42310	327.45032	-2944.90234	537.22729	327.92627	-3000.22876	580.76007	342.11389	-2995.99780	535.46136	338.92236	0.00000	0.00000	0.00000	-2952.32104	474.52939	333.92838	-2892.11450	390.59274	361.86807	-2853.08423	364.63138	361.13940	-2853.49536	436.92139	353.51404	-2817.50073	406.27328	353.56647	-2628.69678	201.01660	325.08423	-2667.07300	186.98277	235.07880	-2567.01782	210.89120	266.10770	-2663.50220	83.43312	364.07263	-2735.50244	65.49133	306.18594	-2704.41260	63.33775	256.40747	-2882.80127	988.54993	136.74806	-3043.98608	973.81097	50.47492	-3142.87988	647.31903	12.41274	-3154.14014	606.00623	17.44161	-3086.52808	622.56927	5.79983	-3107.26562	584.26965	12.42300	-3160.70654	520.84259	29.94732	-3141.58057	496.48312	137.72362	-3114.84668	403.81311	8.06137	-3127.39941	359.35153	13.36553	-3177.51880	410.50653	18.85423	-3179.64600	363.62869	18.47669	0.00000	0.00000	0.00000	-3197.58545	113.04131	149.33276	-3110.62744	62.32755	112.90868	-3327.31787	61.24769	121.47831	-3325.80737	74.47944	70.09389	-3277.90112	49.80845	12.23231
894	7.44167	-2890.21753	973.22711	215.61998	-3072.43945	975.81018	279.66202	-2957.38696	583.90399	325.37543	-2961.66260	535.75293	325.69339	-3015.89941	580.36774	340.24127	-3012.76343	535.01581	336.93997	0.00000	0.00000	0.00000	-2969.98511	473.26706	331.32941	-2909.56616	392.02026	360.01929	-2870.19409	367.09232	359.41754	-2872.30298	439.37802	350.93671	-2835.55688	409.57401	351.30188	-2641.30151	210.47406	324.13425	-2679.23999	194.25081	234.74829	-2580.22681	223.79037	265.16061	-2669.84741	91.66207	363.26523	-2741.16797	67.77705	305.96490	-2709.53516	68.60860	256.15878	-2891.60596	989.62164	135.01547	-3052.81519	975.56281	48.73831	-3149.82471	647.61646	10.95290	-3160.84448	606.32141	16.15695	-3093.35986	623.32330	4.33517	-3113.76953	584.94336	11.12981	-3166.45361	520.79974	29.02514	-3147.80957	497.00592	137.02278	-3118.28101	404.50122	8.69945	-3130.48022	359.84720	14.10373	-3181.30151	410.18753	18.18214	-3182.81079	363.33331	17.99106	0.00000	0.00000	0.00000	-3197.73438	112.97382	149.47035	-3109.99072	62.10093	112.82379	-3327.33643	60.97839	121.52151	-3325.87207	74.23760	70.17361	-3277.95752	49.83759	12.25519
895	7.45000	-2898.29419	973.88220	213.77486	-3080.46387	976.90955	278.07993	-2972.98682	582.66351	323.09586	-2976.93433	535.19165	323.12091	-3031.50146	580.48633	338.34412	-3029.27832	534.90857	335.05688	0.00000	0.00000	0.00000	-2988.14380	472.96323	329.64688	-2926.09644	392.70795	355.42877	-2887.52246	369.43631	357.66205	-2891.23267	441.69543	348.43103	-2853.81104	412.71185	349.01212	-2655.14990	220.22977	322.67670	-2693.29907	201.35136	233.62962	-2594.49487	236.61346	263.55426	-2677.84888	100.59612	362.35675	-2747.85791	69.90620	305.75159	-2712.93896	74.35559	253.62523	-2900.06787	990.81110	133.11554	-3061.50171	977.31586	47.10598	-3156.81177	648.01160	9.88179	-3167.37695	606.63129	15.03291	-3099.82861	624.18494	3.09936	-3119.95068	585.69312	9.93337	-3171.58374	520.81287	28.15560	-3153.80396	497.56250	136.43585	-3121.38110	405.19791	9.71127	-3132.65430	360.44571	14.96642	-3184.66870	409.91800	17.60597	-3185.35547	363.02014	17.56046	0.00000	0.00000	0.00000	-3197.79834	112.93049	149.54474	-3110.00708	62.18470	112.89190	-3327.33496	60.78433	121.53430	-3325.88208	74.04487	70.21783	-3277.94995	49.80914	12.24098
896	7.45833	-2906.25781	974.63586	211.92976	-3087.26514	978.02722	276.53729	-2988.24634	581.97491	320.62509	-2993.21362	534.49158	320.62613	-3046.56348	580.88000	336.56177	-3045.09229	535.06360	333.14618	0.00000	0.00000	0.00000	-3006.06201	473.34131	328.04175	-2944.97119	394.84848	356.07233	-2905.01929	371.67780	355.98407	-2910.01831	443.86389	346.06442	-2871.96704	415.60400	347.00027	-2669.92285	230.22293	321.18643	-2706.69336	208.58226	231.90417	-2611.35278	249.20470	262.38956	-2688.19043	109.60757	361.24490	-2755.22559	71.67092	305.30417	-2720.64453	80.11716	253.28677	-2906.85620	991.51355	129.96347	-3070.13013	979.11499	45.62170	-3163.52661	648.39294	8.84638	-3173.66089	606.99286	14.14477	-3106.34814	625.12317	1.65476	-3126.22046	586.42163	8.61864	-3176.39185	520.80554	27.33971	-3159.00513	498.06287	135.83241	-3123.95654	405.98050	10.48807	-3132.42139	360.57785	13.01778	-3187.77686	409.68719	16.99317	-3187.47778	362.36987	16.67656	0.00000	0.00000	0.00000	-3197.85840	112.95383	149.62993	-3110.67407	62.57162	113.02308	-3327.32153	60.64339	121.55159	-3325.84326	73.85258	70.22144	-3277.94214	49.82097	12.23127
897	7.46667	-2913.98804	975.46411	209.91530	-3095.81812	979.48669	275.28763	-3003.24805	581.74194	318.06155	-3009.17578	534.46027	318.00528	-3061.28516	581.86322	334.78110	-3060.92114	536.07300	331.26822	0.00000	0.00000	0.00000	-3023.84521	474.35764	326.28729	-2962.87183	396.72400	354.32254	-2922.49048	373.98129	354.24051	-2928.72412	446.18747	343.93924	-2889.85889	418.48413	344.85583	-2685.75391	239.57886	319.10413	-2720.84155	215.40556	229.84480	-2628.04688	261.06998	260.37915	-2697.71313	119.30489	360.44656	-2763.37476	73.05194	304.76767	-2728.27930	85.83414	252.83546	-2916.16528	993.12903	129.33356	-3078.54297	980.81091	44.19876	-3169.92944	648.72070	7.99340	-3179.64282	607.34314	13.36058	-3112.71118	626.09894	0.45808	-3132.21021	587.13336	7.50076	-3180.84058	520.71167	26.60826	-3163.38696	498.52478	135.13141	-3125.58618	406.79617	10.91979	-3134.73145	360.99539	13.61946	-3190.82422	409.48642	16.42982	-3189.63818	362.09155	16.35922	0.00000	0.00000	0.00000	-3197.91797	113.00260	149.68306	-3110.17236	62.36948	112.94673	-3327.31104	60.53090	121.58873	-3325.84082	73.68332	70.24391	-3277.96167	49.84000	12.21998
